# xmcd
# 
# Track frame offsets:
#     150
#     25222
#     51675
#     61860
#     73842
#     86282
#     96455
#     112365
#     123720
#     133100
#     152710
#     167662
#     208752
# 
# Disc length: 3031
# 
# Revision: 8
# Processed by: cddbd v1.5.2PL0 Copyright (c) Steve Scherf et al.
# Submitted via: fre:ac v1.0.31
# 
DISCID=c80bd50d
DTITLE=Original Soundtrack - Field Of Dreams
DYEAR=1989
DGENRE=Soundtrack
TTITLE0=The Cornfield
TTITLE1=Deciding To Build The Field
TTITLE2=Shoeless Joe
TTITLE3=The Timeless Street
TTITLE4=Old Ball Players
TTITLE5=The Drive Home
TTITLE6=Field Of Dreams
TTITLE7=The Library
TTITLE8="Moonlight" Graham
TTITLE9=Night Mists
TTITLE10=Doc's Memories
TTITLE11=The Place Where Dreams Come True
TTITLE12=End Credits
EXTD=YEAR: 1989
EXTT0=
EXTT1=
EXTT2=
EXTT3=
EXTT4=
EXTT5=
EXTT6=
EXTT7=
EXTT8=
EXTT9=
EXTT10=
EXTT11=
EXTT12=
PLAYORDER=
